# xmcd CD database file
#
# Track frame offsets:
#	150
#	11276
#	24495
#	38789
#	46581
#	62567
#	70338
#	80557
#	88123
#	99273
#	112451
#	122208
#	139171
#	149469
#
# Disc length: 2188 seconds
#
# Revision: 0
# Processed by: cddbd v1.5.1PL2 Copyright (c) Steve Scherf et al.
# Submitted via: CDex 1.51
#
DISCID=be088a0e
DTITLE=Bing Crosby - Vocal Jazz
DYEAR=2001
DGENRE=Jazz
TTITLE0=Lady Of Spain
TTITLE1=The Very Thought Of You
TTITLE2=June In January
TTITLE3=Zip-A-Dee-Doo-Dah
TTITLE4=P.S. I Love You
TTITLE5=If This Isn't Love
TTITLE6=Ole Buttermilk Sky
TTITLE7=Great Day
TTITLE8=I Got The Sun In The Morning
TTITLE9=May I
TTITLE10=It's A Good Day
TTITLE11=You Go To My Head
TTITLE12=The Old Lamplighter
TTITLE13=Someday Sweetheart
EXTD=YEAR: 2001
EXTT0=
EXTT1=
EXTT2=
EXTT3=
EXTT4=
EXTT5=
EXTT6=
EXTT7=
EXTT8=
EXTT9=
EXTT10=
EXTT11=
EXTT12=
EXTT13=
PLAYORDER=
